<?xml version="1.0" encoding="utf-8"?>
<!-- Generator: Adobe Illustrator 19.2.1, SVG Export Plug-In . SVG Version: 6.00 Build 0)  -->
<svg version="1.1" id="layer" xmlns="http://www.w3.org/2000/svg" xmlns:xlink="http://www.w3.org/1999/xlink" x="0px" y="0px"
	 viewBox="0 0 652 652" style="enable-background:new 0 0 652 652;" xml:space="preserve">
<style type="text/css">
	.st0{fill:#FF0000;}
</style>
<path class="st0" d="M507,335.6c-0.4,17.2,3.9,36.5,24.4,36.5c13.1,0,19.1-7.8,23.7-17.4l5.3,2.8c-4.6,13.3-14.2,23.4-32.8,23.4
	c-28,0-38.6-16.1-38.6-42.3c0-25,12.4-43.6,38.6-43.6c30.5,0,33.8,23.7,33.8,33.8c0,5.5-3.2,6.7-6.9,6.7H507z M538.1,328.7
	c4.6,0,5.7-1.9,5.7-5.3c0-6.6-1.9-22.1-17-22.1c-17.2,0-19.7,20.4-19.7,27.5H538.1z M590.6,363.7c0,8.3,0.9,8.9,15.8,9.6v5.5h-44.3
	v-5.5c11.5-0.9,12.4-1.2,12.4-9.6v-51c0-6-1.1-7.1-5.3-7.6l-6.2-0.7v-5l25.7-4.3l2,13.6c10.8-9.7,15.9-13.8,22-13.8
	c6.6,0,9,4.4,9,8.3c0,5.1-3.7,10.3-8,10.3c-1.1,0-2.3-0.2-3.5-1.1c-4.2-3-7.1-4.1-9.7-4.1c-3.9,0-9.7,4.4-9.7,17V363.7z M369.9,295
	c26.9,0,40,15.9,40,43c0,26.9-13.1,42.9-40.2,42.9c-26.7,0-40-15.9-40-42.9c0-27.1,13.3-43,40-43H369.9z M347.6,338.2
	c0,22.7,7.1,36.5,22.1,36.5c15.2,0,22.3-13.8,22.3-36.7c0-23-7.1-36.8-22.3-36.8c-15.1,0-22.1,13.8-22.1,36.8V338.2z M442,378.8
	c-8.3-23-16.6-46-25.3-68.5c-2.5-6.2-4.3-6.9-12.2-7.4v-5.7h38.6v5.7l-7.4,0.7c-3.2,0.4-3.7,1.8-2.7,5c6.4,18.4,12.9,36.8,19.5,54.9
	h0.4c5.7-15.2,14.7-40.2,19.1-55.3c0.7-2.3,0.2-4.1-2.5-4.6l-8.1-0.7v-5.7H493v5.7c-7.6,0.4-9.4,1.4-11.9,7.1
	c-5.5,11.5-17.4,42.9-26.9,68.9H442z"/>
<path class="st0" d="M77.5,263.2c20.2,0,35.6,3.5,46.4,13.8c10.1,9.7,14.3,24.6,14.3,41.8c0,41.6-26.2,60-64.5,60H21.6v-5.5
	c14.5-1.1,14.9-1.2,14.9-10.6v-83.6c0-9.4-0.4-9.6-14.9-10.6v-5.3H77.5z M54.1,357.9c0,12.8,2.1,14.7,16.5,14.7
	c28.2,0,47.8-11,47.8-53.3c0-28.2-10.8-49.9-45.9-49.9c-17.5,0-18.4,0.9-18.4,9.2V357.9z M155.8,312.7c0-6-1.1-6.9-5.3-7.6l-6.2-0.7
	v-4.8l26.4-4.4l1.2,1.1v67.5c0,8.3,0.7,8.7,12.4,9.6v5.5h-40.9v-5.5c11.9-0.7,12.4-1.2,12.4-9.6V312.7z M163.9,260.8
	c6,0,10.3,4.6,10.1,10.6c0,6-4.1,10.3-10.3,10.3s-10.4-4.3-10.4-10.3c0-6,4.2-10.6,10.4-10.6H163.9z M236.2,320.7
	c-1.2-10.3-6.6-19.5-18.2-19.5c-8.2,0-14.5,4.6-14.5,13.1c0,8.7,10.6,13.1,17.7,15.4c17.7,6.2,25.9,11.3,25.9,26
	c0,14.3-11.3,25.1-31.2,25.1c-9.9,0-19.8-2.3-26-7.8l-1.8-22h5.3c3.4,14.2,10.3,23.6,23.6,23.6c8.3,0,15.2-5,15.2-13.3
	c0-8.9-8.1-12.9-18.4-16.8c-14.3-5-24.3-10.1-24.3-25.1c0-15.9,12.2-24.4,30.3-24.4c7.6,0,16.1,1.8,21.8,5.1v20.5H236.2z M324.6,357
	c-5,18.1-20.5,23.9-32.4,23.9c-24.8,0-38.6-14.2-38.6-42c0-22.7,10.5-43.9,40.6-43.9c17.9,0,29.2,8.3,29.2,16.3
	c0,6.4-6.6,8.5-10.1,8.5c-3.4,0-4.4-1.4-5.3-4.3c-3.4-9.2-8.1-14.3-15.6-14.3c-11.2,0-20.9,9.9-20.9,34.5c0,16.3,5,36.1,24.3,36.1
	c12,0,18.4-5.8,23.6-17.5L324.6,357z"/>
<path class="st0" d="M608.8,375.9c0-1.7,1.4-3.2,3.2-3.2c1.7,0,3.2,1.4,3.2,3.2c0,1.7-1.4,3.2-3.2,3.2
	C610.2,379.1,608.8,377.7,608.8,375.9z M614.3,375.9c0-1.5-1.1-2.5-2.4-2.5c-1.3,0-2.4,1.1-2.4,2.5c0,1.5,1.1,2.5,2.4,2.5
	C613.3,378.5,614.3,377.4,614.3,375.9z M610.7,374.1h1.3c0.9,0,1.3,0.3,1.3,1.1c0,0.6-0.4,0.9-0.9,1l1,1.6h-0.7l-0.9-1.5h-0.4v1.5
	h-0.7V374.1z M611.4,375.7h0.6c0.4,0,0.7-0.1,0.7-0.5c0-0.4-0.4-0.5-0.7-0.5h-0.6V375.7z"/>
<path d="M342,273.3c-0.4-2.1-1.3-3.1-3-3.1c-1.7,0-2.6,1.1-2.6,2.6c0,1.6,1.7,2.3,3,2.8c2.4,0.9,4.3,1.8,4.3,4.4
	c0,2.2-1.5,4.2-5.2,4.2c-1.4,0-3.2-0.4-4.1-1.3l-0.2-3.3h0.8c0.5,2.3,1.8,3.7,3.7,3.7c1.8,0,2.8-1,2.8-2.6c0-1.6-1.7-2.5-3.2-3.1
	c-2.1-0.7-3.9-1.6-3.9-4.2c0-2.8,2.2-4.1,4.8-4.1c1.4,0,2.8,0.4,3.7,0.9v3.1H342z M358.3,279.7l-0.2,3.5c-1,0.6-2.9,0.9-4.5,0.9
	c-4.9,0-7.6-2.4-7.6-7.3c0-2.3,0.7-4.1,1.9-5.4c1.2-1.4,3.3-2.1,5.8-2.1c1.7,0,3.3,0.3,4.3,0.8v3.3h-0.8c-0.4-2.4-1.7-3.2-3.8-3.2
	c-3.8,0-5,3.4-5,6.6c0,2.4,0.7,6.5,4.9,6.5c2.6,0,3.6-1.4,4.1-3.6H358.3z M364.4,281.8c0,1.2,0.1,1.2,1.9,1.3v0.8h-5.9v-0.8
	c1.8-0.1,1.8-0.2,1.8-1.3v-10.1c0-1.2,0-1.2-1.8-1.3v-0.8h5.9v0.8c-1.8,0.1-1.9,0.1-1.9,1.3V281.8z M370.2,271.7
	c0-1.1,0-1.2-1.8-1.3v-0.8h10.5v3.4h-0.8c-0.3-2.1-0.7-2.5-3-2.5h-1.9c-0.7,0-0.7,0.1-0.7,0.7v4.7h2.7c1.7,0,1.6-0.5,1.8-1.8h0.8
	v4.6H377c-0.2-1.2-0.2-1.8-1.8-1.8h-2.7v4.3c0,1.3,0.2,1.7,2.6,1.7c2.6,0,3.4-0.5,3.9-2.9h0.8l-0.4,3.8h-10.9v-0.8
	c1.8-0.1,1.8-0.2,1.8-1.3V271.7z M393.1,283.9c-2.9-4.1-5.6-8.1-8.5-12.2h0v7.8c0,1.2,0,2,0.1,2.7c0.1,0.9,0.8,0.8,2.1,0.9v0.8h-5.2
	v-0.8c1.1-0.1,1.6-0.1,1.7-0.9c0.1-0.7,0.1-1.5,0.1-2.7v-7.8c0-1.2,0-1.2-1.8-1.3v-0.8h4.2c2.2,3.1,5,7.3,7.7,11.1l0,0V274
	c0-1.2,0-2-0.1-2.6c-0.1-0.9-0.9-0.9-2.1-0.9v-0.8h5.2v0.8c-1.1,0.1-1.6,0-1.7,0.9c-0.1,0.7-0.1,1.5-0.1,2.6v9.9H393.1z
	 M410.2,279.7l-0.2,3.5c-1,0.6-2.9,0.9-4.5,0.9c-4.9,0-7.6-2.4-7.6-7.3c0-2.3,0.7-4.1,1.9-5.4c1.2-1.4,3.3-2.1,5.8-2.1
	c1.7,0,3.3,0.3,4.3,0.8v3.3h-0.8c-0.4-2.4-1.7-3.2-3.8-3.2c-3.8,0-5,3.4-5,6.6c0,2.4,0.7,6.5,4.9,6.5c2.6,0,3.6-1.4,4.1-3.6H410.2z
	 M413.8,271.7c0-1.1,0-1.2-1.8-1.3v-0.8h10.5v3.4h-0.8c-0.3-2.1-0.7-2.5-3-2.5h-1.9c-0.7,0-0.7,0.1-0.7,0.7v4.7h2.7
	c1.7,0,1.6-0.5,1.8-1.8h0.8v4.6h-0.8c-0.2-1.2-0.2-1.8-1.8-1.8h-2.7v4.3c0,1.3,0.2,1.7,2.6,1.7c2.6,0,3.4-0.5,3.9-2.9h0.8l-0.4,3.8
	H412v-0.8c1.8-0.1,1.8-0.2,1.8-1.3V271.7z M440.7,269.7v3.5h-0.8c-0.3-2.1-0.7-2.6-3.1-2.6H435c-0.7,0-0.8,0.1-0.8,0.7v5h2.7
	c1.7,0,1.7-0.4,1.9-1.8h0.8v4.7h-0.8c-0.2-1.3-0.2-1.9-1.9-1.9h-2.7v4.5c0,1.1,0,1.2,2.2,1.3v0.8h-6.3v-0.8c1.8-0.1,1.8-0.2,1.8-1.3
	v-10.1c0-1.2,0-1.2-1.8-1.3v-0.8H440.7z M449.5,269.3c4.7,0,6.9,3,6.9,7.5c0,4.5-2.3,7.4-7,7.4c-4.7,0-6.9-3-6.9-7.4
	C442.6,272.3,444.8,269.3,449.5,269.3L449.5,269.3z M449.5,270.2c-3.6,0-4.4,3.6-4.4,6.6c0,3,0.8,6.6,4.4,6.6c3.6,0,4.4-3.6,4.4-6.6
	C453.9,273.8,453.1,270.2,449.5,270.2L449.5,270.2z M462.3,281.8c0,1.1,0.1,1.2,1.8,1.3v0.8h-5.9v-0.8c1.8-0.1,1.8-0.2,1.8-1.3
	v-10.1c0-1.2,0-1.2-1.8-1.3v-0.8h6.5c3.5,0,4.5,1.6,4.5,3.5c0,1.9-1.3,3.1-3.3,3.5v0c2.1,0.5,2.7,2.1,2.9,3.8
	c0.2,1.3,0.5,2.4,2.1,2.6v0.8h-1.8c-1.2,0-2-0.4-2.4-1.7c-0.2-0.9-0.5-2.8-0.6-3.2c-0.4-1.4-1.5-1.8-2.6-1.8h-1.3V281.8z
	 M462.3,276.2h1.6c1.9,0,2.9-0.8,2.9-2.9c0-2.8-1.7-2.8-3.2-2.8c-1.3,0-1.2,0.1-1.2,1V276.2z M483.5,281.8c0,0.9,0,1.2,1.2,1.2
	l1.1,0.1v0.8H479v-0.8l1-0.1c1.2-0.1,1.2-0.3,1.2-1.2v-11.2h-1.1c-2.3,0-2.7,0.4-3,2.8h-0.8v-3.7h12v3.7h-0.8
	c-0.3-2.4-0.6-2.8-3-2.8h-1.1V281.8z M493.9,277v4.9c0,1.1,0,1.1,1.9,1.2v0.8h-6v-0.8c1.8-0.1,1.8-0.1,1.8-1.2v-10.3
	c0-1.1,0-1.1-1.8-1.2v-0.8h6v0.8c-1.8,0.1-1.9,0.1-1.9,1.2v4.4h6.9v-4.4c0-1.1,0-1.1-1.8-1.2v-0.8h6v0.8c-1.8,0.1-1.8,0.1-1.8,1.2
	v10.3c0,1.1,0,1.1,1.8,1.2v0.8h-6v-0.8c1.8-0.1,1.8-0.1,1.8-1.2V277H493.9z M508.6,271.7c0-1.1,0-1.2-1.8-1.3v-0.8h10.5v3.4h-0.8
	c-0.3-2.1-0.7-2.5-3-2.5h-1.9c-0.7,0-0.7,0.1-0.7,0.7v4.7h2.7c1.7,0,1.6-0.5,1.8-1.8h0.8v4.6h-0.8c-0.2-1.2-0.2-1.8-1.8-1.8h-2.7
	v4.3c0,1.3,0.2,1.7,2.6,1.7c2.6,0,3.4-0.5,3.9-2.9h0.8l-0.4,3.8h-10.9v-0.8c1.8-0.1,1.8-0.2,1.8-1.3V271.7z M537.4,279.7l-0.2,3.5
	c-1,0.6-2.9,0.9-4.5,0.9c-4.9,0-7.6-2.4-7.6-7.3c0-2.3,0.7-4.1,1.9-5.4c1.2-1.4,3.3-2.1,5.8-2.1c1.7,0,3.3,0.3,4.3,0.8v3.3h-0.8
	c-0.4-2.4-1.7-3.2-3.8-3.2c-3.8,0-5,3.4-5,6.6c0,2.4,0.7,6.5,4.9,6.5c2.6,0,3.6-1.4,4.1-3.6H537.4z M554.3,269.7v0.7
	c-1.8,0.1-1.9,0.2-1.9,1.3v7c0,1.2-0.2,2.3-0.6,3c-1,2-3.2,2.5-5.3,2.5c-2.1,0-4.2-0.5-5.1-2.4c-0.4-0.7-0.6-1.8-0.6-3v-7
	c0-1.2,0-1.2-1.9-1.3v-0.8h6v0.8c-1.8,0.1-1.8,0.1-1.8,1.3v6.5c0,2.4,0.6,5.1,3.5,5.1c3,0,3.6-2.5,3.6-5.1v-6.5
	c0-1.2-0.1-1.2-1.8-1.3v-0.8H554.3z M559.8,281.8c0,1.1,0.1,1.2,1.8,1.3v0.8h-5.9v-0.8c1.8-0.1,1.8-0.2,1.8-1.3v-10.1
	c0-1.2,0-1.2-1.8-1.3v-0.8h6.5c3.5,0,4.5,1.6,4.5,3.5c0,1.9-1.3,3.1-3.3,3.5v0c2.1,0.5,2.7,2.1,2.9,3.8c0.2,1.3,0.5,2.4,2.1,2.6v0.8
	h-1.8c-1.2,0-2-0.4-2.4-1.7c-0.2-0.9-0.5-2.8-0.6-3.2c-0.4-1.4-1.5-1.8-2.6-1.8h-1.3V281.8z M559.8,276.2h1.6c1.9,0,2.9-0.8,2.9-2.9
	c0-2.8-1.7-2.8-3.2-2.8c-1.3,0-1.2,0.1-1.2,1V276.2z M573.6,281.8c0,1.2,0.1,1.2,1.9,1.3v0.8h-5.9v-0.8c1.8-0.1,1.8-0.2,1.8-1.3
	v-10.1c0-1.2,0-1.2-1.8-1.3v-0.8h5.9v0.8c-1.8,0.1-1.9,0.1-1.9,1.3V281.8z M584.5,269.3c4.7,0,6.9,3,6.9,7.5c0,4.5-2.3,7.4-7,7.4
	c-4.7,0-6.9-3-6.9-7.4C577.6,272.3,579.8,269.3,584.5,269.3L584.5,269.3z M584.5,270.2c-3.6,0-4.4,3.6-4.4,6.6c0,3,0.8,6.6,4.4,6.6
	c3.6,0,4.4-3.6,4.4-6.6C588.9,273.8,588.1,270.2,584.5,270.2L584.5,270.2z M608.1,269.7v0.7c-1.8,0.1-1.9,0.2-1.9,1.3v7
	c0,1.2-0.2,2.3-0.6,3c-1,2-3.2,2.5-5.3,2.5c-2.1,0-4.2-0.5-5.1-2.4c-0.4-0.7-0.6-1.8-0.6-3v-7c0-1.2,0-1.2-1.9-1.3v-0.8h6v0.8
	c-1.8,0.1-1.8,0.1-1.8,1.3v6.5c0,2.4,0.6,5.1,3.5,5.1c3,0,3.6-2.5,3.6-5.1v-6.5c0-1.2-0.1-1.2-1.8-1.3v-0.8H608.1z M617.4,273.3
	c-0.4-2.1-1.3-3.1-3-3.1c-1.7,0-2.6,1.1-2.6,2.6c0,1.6,1.7,2.3,3,2.8c2.4,0.9,4.3,1.8,4.3,4.4c0,2.2-1.5,4.2-5.2,4.2
	c-1.4,0-3.2-0.4-4.1-1.3l-0.2-3.3h0.8c0.5,2.3,1.8,3.7,3.7,3.7c1.8,0,2.8-1,2.8-2.6c0-1.6-1.7-2.5-3.2-3.1c-2.1-0.7-3.9-1.6-3.9-4.2
	c0-2.8,2.2-4.1,4.8-4.1c1.4,0,2.8,0.4,3.7,0.9v3.1H617.4z"/>
</svg>
